<?xml version="1.0" encoding="utf-8"?>
<!-- Generator: Adobe Illustrator 26.5.0, SVG Export Plug-In . SVG Version: 6.00 Build 0)  -->
<svg version="1.1" id="Layer_1" xmlns="http://www.w3.org/2000/svg" xmlns:xlink="http://www.w3.org/1999/xlink" x="0px" y="0px"
	 viewBox="0 0 500 146" style="enable-background:new 0 0 500 146;" xml:space="preserve">
<style type="text/css">
	.st0{fill:#060D1E;}
	.st1{fill:url(#SVGID_1_);}
	.st2{fill:url(#SVGID_00000152246648214188792830000001217901474130398338_);}
	.st3{fill:url(#SVGID_00000129910459823687474410000010010892064492807096_);}
	.st4{fill:url(#SVGID_00000142176676580829934880000004213783820172886455_);}
	.st5{fill:url(#SVGID_00000036949378611860766840000015142422559623677322_);}
	.st6{fill:url(#SVGID_00000175282094769818708020000013336841716865215669_);}
	.st7{fill:url(#SVGID_00000115482719010793325860000010737815284747772603_);}
	.st8{fill:url(#SVGID_00000131357140563876243760000003208555699581467032_);}
	.st9{fill:url(#SVGID_00000064331977211260746230000010529407189110915502_);}
	.st10{fill:url(#SVGID_00000116925938440312564990000002658943152709319311_);}
	.st11{fill:url(#SVGID_00000070113689659300577100000005570267810072568468_);}
	.st12{fill:url(#SVGID_00000053528260948639236820000008727098773971291308_);}
	.st13{fill:url(#SVGID_00000045607057032921813980000018090365076079069849_);}
	.st14{fill:url(#SVGID_00000146467905622111586940000001723357671890072735_);}
	.st15{fill:url(#SVGID_00000105426010568675678140000017067084373958607007_);}
	.st16{fill:url(#SVGID_00000060001387712082926150000012343149623184691079_);}
	.st17{fill:url(#SVGID_00000174586273896206277190000001001232241535206272_);}
	.st18{fill:url(#SVGID_00000033369291949853386810000012197379448011114883_);}
	.st19{fill:url(#SVGID_00000035493275988601997180000010690651323961549980_);}
	.st20{fill:url(#SVGID_00000044157042023033641840000005248174338399087244_);}
	.st21{fill:url(#SVGID_00000152983337032155506680000004689623580619329423_);}
	.st22{fill:url(#SVGID_00000057136321543926129580000007660016148140908190_);}
	.st23{fill:url(#SVGID_00000112623609823297319380000016557352743885256322_);}
	.st24{fill:url(#SVGID_00000039129740309645414520000006686243505701027987_);}
	.st25{fill:url(#SVGID_00000161615900974380931320000001406319909081196417_);}
	.st26{fill:url(#SVGID_00000075864745279744674620000010426826133914209422_);}
	.st27{fill:url(#SVGID_00000106826778984749945120000004450120712620515976_);}
	.st28{fill:url(#SVGID_00000060719297946531147720000004896564483502967199_);}
	.st29{fill:url(#SVGID_00000178163982791256774560000008525182863076472744_);}
	.st30{fill:url(#SVGID_00000005253535688289571960000011294408033961831060_);}
	.st31{fill:url(#SVGID_00000143597102827087971180000018212968312109370808_);}
	.st32{fill:url(#SVGID_00000147194056898359293590000017568144415813775775_);}
	.st33{fill:url(#SVGID_00000181782563839929655130000005338622057171956899_);}
	.st34{fill:url(#SVGID_00000013160290683895593220000014770216584589690255_);}
	.st35{fill:url(#SVGID_00000049184755213921487140000003322581762374786724_);}
	.st36{fill:url(#SVGID_00000104707028768096352880000008796976988908377740_);}
	.st37{fill:url(#SVGID_00000023247198344610174210000012843708099766959801_);}
	.st38{fill:url(#SVGID_00000046334191412248285070000017880160605668060834_);}
	.st39{fill:url(#SVGID_00000045582773639560138770000010994826227394341553_);}
	.st40{fill:url(#SVGID_00000093177607537271603190000000847337291979452606_);}
	.st41{fill:url(#SVGID_00000085226780324997582760000013639720577527226774_);}
	.st42{fill:url(#SVGID_00000085939296448254172920000017694421076096496784_);}
	.st43{fill:url(#SVGID_00000052091597912345331710000007703329769772233636_);}
	.st44{fill:url(#SVGID_00000120521626375117423350000016371239899856179606_);}
	.st45{fill:url(#SVGID_00000111895660520898044890000006423126037278188424_);}
	.st46{fill:url(#SVGID_00000146476345542369225790000000841390916653783476_);}
	.st47{fill:url(#SVGID_00000132771415803797303220000017654866931732229292_);}
	.st48{fill:url(#SVGID_00000073722723268979066880000012854599635679848079_);}
	.st49{fill:url(#SVGID_00000030476555943333132190000004509932146309597624_);}
	.st50{fill:url(#SVGID_00000004528072836698056800000015874340891769350843_);}
	.st51{fill:url(#SVGID_00000166644707627698516450000016230982109640613546_);}
	.st52{fill:url(#SVGID_00000160173193479041473040000005809143166872037010_);}
	.st53{fill:url(#SVGID_00000174592912218833106350000015516980283998784397_);}
	.st54{fill:url(#SVGID_00000123404280759813763030000005719878629736609410_);}
	.st55{fill:url(#SVGID_00000049913172210167049040000012034229319024532136_);}
	.st56{fill:url(#SVGID_00000034060402113339777290000014867645168873342081_);}
	.st57{fill:url(#SVGID_00000090268743139213945950000011022897415895395721_);}
	.st58{fill:url(#SVGID_00000148631607968932345470000001870420241768784829_);}
	.st59{fill:url(#SVGID_00000012432296187859847610000010825188934992586419_);}
	.st60{fill:url(#SVGID_00000054951520040985974720000010766811831562684833_);}
	.st61{fill:url(#SVGID_00000121983218938546805070000013076531244709196172_);}
	.st62{fill:url(#SVGID_00000032634551367049953020000011061087061196648595_);}
	.st63{fill:url(#SVGID_00000096046014384921841850000010382836556492446115_);}
	.st64{fill:url(#SVGID_00000018935426125348116380000012422578594063840191_);}
	.st65{fill:url(#SVGID_00000067923930522861179210000015592074134926661011_);}
	.st66{fill:#FFFFFF;}
	.st67{fill-rule:evenodd;clip-rule:evenodd;fill:#FFFFFF;}
	.st68{fill:#606060;}
	.st69{fill-rule:evenodd;clip-rule:evenodd;fill:#606060;}
</style>
<rect class="st0" width="500" height="146"/>
<g>
	<g>
		<g>
			<path class="st66" d="M206.13,48.01c0,1.2,0.24,1.97,0.73,2.31c0.49,0.34,1.53,0.51,3.13,0.51c2.38,0,4.24-0.66,5.58-1.97
				s2.13-3.25,2.36-5.82h1.88l-0.54,9.49h-22.09v-1.7c1.21-0.11,1.99-0.33,2.35-0.67c0.35-0.34,0.53-1.05,0.53-2.14V32.6
				c0-1.09-0.18-1.81-0.53-2.15c-0.35-0.34-1.14-0.56-2.35-0.67v-1.7h11.79v1.7c-1.19,0.1-1.96,0.31-2.32,0.65
				c-0.35,0.33-0.53,1.05-0.53,2.17V48.01z"/>
			<path class="st66" d="M224.28,32.6c0-1.09-0.18-1.81-0.53-2.15c-0.35-0.34-1.14-0.56-2.35-0.67v-1.7h11.79v1.7
				c-1.19,0.1-1.96,0.31-2.32,0.65c-0.36,0.33-0.53,1.05-0.53,2.17v15.41c0,1.11,0.18,1.84,0.53,2.17c0.36,0.33,1.13,0.55,2.32,0.65
				v1.7H221.4v-1.7c1.21-0.11,1.99-0.33,2.35-0.67c0.36-0.34,0.53-1.05,0.53-2.14V32.6z M225.28,23.48c0-0.56,0.21-1.04,0.61-1.46
				c0.41-0.41,0.89-0.62,1.43-0.62c0.56,0,1.04,0.21,1.46,0.63c0.41,0.42,0.62,0.9,0.62,1.45c0,0.58-0.2,1.06-0.61,1.46
				c-0.4,0.39-0.9,0.59-1.47,0.59c-0.57,0-1.05-0.2-1.45-0.59C225.48,24.55,225.28,24.06,225.28,23.48z"/>
			<path class="st66" d="M236.35,53l-0.51-9.82h2.08c0.99,2.63,2.2,4.63,3.63,6.01c1.43,1.37,3.01,2.06,4.75,2.06
				c1.29,0,2.34-0.34,3.16-1.03c0.82-0.69,1.23-1.56,1.23-2.62c0-0.97-0.32-1.76-0.96-2.37c-0.64-0.61-1.78-1.18-3.43-1.72
				l-3.59-1.21c-1.93-0.63-3.43-1.6-4.48-2.9c-1.06-1.3-1.59-2.82-1.59-4.57c0-2.17,0.71-3.94,2.14-5.31
				c1.43-1.36,3.3-2.05,5.6-2.05c0.5,0,1.03,0.05,1.58,0.16c0.55,0.11,1.19,0.29,1.91,0.54c0.34,0.12,0.67,0.26,1,0.41
				c0.33,0.15,0.5,0.23,0.52,0.23c0.04,0,0.14,0.02,0.28,0.05c0.14,0.03,0.26,0.05,0.36,0.05c0.28,0,0.53-0.11,0.74-0.34
				c0.21-0.23,0.36-0.56,0.46-0.98l1.51-0.02l0.41,7.81h-1.67c-0.95-2.04-2-3.56-3.16-4.56c-1.16-1-2.44-1.5-3.85-1.5
				c-1.22,0-2.21,0.29-2.96,0.86s-1.13,1.31-1.13,2.22c0,0.75,0.33,1.44,0.98,2.07c0.66,0.63,1.57,1.12,2.74,1.48l3.62,1.14
				c2.27,0.72,3.96,1.75,5.07,3.09c1.12,1.34,1.67,3.03,1.67,5.06c0,2.31-0.75,4.2-2.26,5.67c-1.51,1.47-3.45,2.2-5.83,2.2
				c-0.58,0-1.17-0.06-1.78-0.17c-0.6-0.11-1.36-0.32-2.27-0.63c-0.32-0.1-0.82-0.29-1.51-0.58c-0.69-0.29-1.19-0.43-1.52-0.43
				c-0.32,0-0.58,0.15-0.8,0.46c-0.22,0.31-0.36,0.71-0.41,1.23H236.35z"/>
			<path class="st66" d="M257.11,52.53v-1.7c1.21-0.11,2-0.33,2.35-0.67c0.35-0.34,0.53-1.05,0.53-2.14V32.6
				c0-1.09-0.18-1.81-0.53-2.15c-0.36-0.34-1.14-0.56-2.35-0.67v-1.7H280l0.51,8.22h-1.88c-0.43-2.3-1.31-3.96-2.67-4.99
				c-1.35-1.02-3.35-1.53-5.98-1.53c-1.64,0-2.7,0.17-3.19,0.5c-0.49,0.33-0.74,1.1-0.74,2.32v6.39h1.47c1.42,0,2.49-0.39,3.2-1.16
				c0.72-0.78,1.15-2.01,1.3-3.7h1.67v11.49h-1.67c-0.15-1.69-0.59-2.92-1.3-3.7c-0.71-0.77-1.78-1.16-3.2-1.16h-1.47v7.25
				c0,1.22,0.25,2,0.75,2.32c0.5,0.33,1.6,0.49,3.32,0.49c2.84,0,4.94-0.56,6.32-1.68c1.38-1.12,2.22-2.97,2.54-5.53h1.88
				l-0.54,8.92H257.11z"/>
			<path class="st66" d="M292.6,48.01c0,1.2,0.24,1.97,0.73,2.31c0.49,0.34,1.53,0.51,3.14,0.51c2.38,0,4.24-0.66,5.58-1.97
				c1.34-1.31,2.13-3.25,2.36-5.82h1.88l-0.54,9.49h-22.09v-1.7c1.21-0.11,2-0.33,2.35-0.67c0.35-0.34,0.53-1.05,0.53-2.14V32.6
				c0-1.09-0.18-1.81-0.53-2.15c-0.36-0.34-1.14-0.56-2.35-0.67v-1.7h11.79v1.7c-1.19,0.1-1.96,0.31-2.32,0.65
				c-0.35,0.33-0.53,1.05-0.53,2.17V48.01z"/>
			<path class="st66" d="M310.76,32.6c0-1.09-0.18-1.81-0.53-2.15c-0.36-0.34-1.14-0.56-2.35-0.67v-1.7h11.79v1.7
				c-1.19,0.1-1.96,0.31-2.32,0.65c-0.36,0.33-0.53,1.05-0.53,2.17v15.41c0,1.11,0.18,1.84,0.53,2.17c0.36,0.33,1.13,0.55,2.32,0.65
				v1.7h-11.79v-1.7c1.21-0.11,1.99-0.33,2.35-0.67c0.36-0.34,0.53-1.05,0.53-2.14V32.6z M311.76,23.48c0-0.56,0.2-1.04,0.61-1.46
				c0.41-0.41,0.89-0.62,1.43-0.62c0.56,0,1.04,0.21,1.46,0.63s0.62,0.9,0.62,1.45c0,0.58-0.2,1.06-0.61,1.46
				c-0.4,0.39-0.9,0.59-1.47,0.59c-0.57,0-1.05-0.2-1.45-0.59C311.96,24.55,311.76,24.06,311.76,23.48z"/>
			<path class="st66" d="M197.19,92.76v-1.7c1.21-0.11,1.99-0.33,2.35-0.67c0.35-0.34,0.53-1.05,0.53-2.14V72.84
				c0-1.09-0.18-1.81-0.53-2.15c-0.35-0.34-1.14-0.56-2.35-0.67v-1.7h11.56c3.64,0,6.29,0.45,7.97,1.37
				c1.68,0.91,2.52,2.34,2.52,4.3c0,1.48-0.59,2.68-1.76,3.58c-1.17,0.9-3,1.55-5.48,1.96c2.97,0.45,5.14,1.21,6.52,2.3
				c1.37,1.09,2.06,2.58,2.06,4.48c0,2.15-0.92,3.77-2.75,4.85s-4.57,1.62-8.22,1.62H197.19z M206.13,72.64v6.04h1.65
				c1.85,0,3.22-0.34,4.08-1.02c0.87-0.68,1.3-1.75,1.3-3.2c0-1.45-0.37-2.58-1.11-3.37c-0.74-0.8-1.79-1.2-3.14-1.2
				c-1.06,0-1.79,0.18-2.19,0.54C206.32,70.79,206.13,71.53,206.13,72.64z M206.13,80.35v7.71c0,1.28,0.2,2.1,0.6,2.46
				c0.4,0.36,1.19,0.54,2.36,0.54c1.59,0,2.83-0.45,3.71-1.35c0.88-0.9,1.32-2.17,1.32-3.82c0-1.85-0.5-3.24-1.51-4.16
				c-1.01-0.92-2.53-1.37-4.57-1.37H206.13z"/>
			<path class="st66" d="M225.8,72.84c0-1.16-0.17-1.89-0.52-2.21c-0.35-0.32-1.15-0.52-2.39-0.61v-1.7h11.61v1.7
				c-1.07,0.07-1.77,0.26-2.11,0.59c-0.34,0.33-0.51,1.07-0.51,2.23v10.81c0,2.56,0.45,4.43,1.34,5.59c0.9,1.16,2.32,1.74,4.29,1.74
				c1.95,0,3.4-0.59,4.33-1.78c0.93-1.19,1.4-3.04,1.4-5.55V72.84c0-1.16-0.17-1.9-0.51-2.23s-1.04-0.52-2.1-0.59v-1.7h7.56v1.7
				c-1.23,0.09-2.03,0.29-2.38,0.61c-0.36,0.32-0.53,1.05-0.53,2.21v10.3c0,3.55-0.78,6.13-2.34,7.76
				c-1.56,1.63-4.03,2.44-7.42,2.44c-3.37,0-5.84-0.82-7.39-2.45c-1.56-1.63-2.33-4.22-2.33-7.75V72.84z M231.55,63.72
				c0-0.49,0.19-0.92,0.57-1.3c0.38-0.38,0.83-0.57,1.34-0.57c0.51,0,0.96,0.19,1.34,0.56c0.38,0.37,0.57,0.81,0.57,1.31
				c0,0.56-0.18,1.02-0.55,1.38c-0.37,0.36-0.82,0.54-1.37,0.54c-0.54,0-0.99-0.18-1.36-0.55
				C231.74,64.72,231.55,64.26,231.55,63.72z M237.38,63.72c0-0.49,0.19-0.92,0.58-1.3c0.39-0.38,0.83-0.57,1.33-0.57
				c0.52,0,0.97,0.19,1.35,0.56c0.38,0.37,0.56,0.81,0.56,1.31c0,0.56-0.18,1.02-0.55,1.38c-0.36,0.36-0.82,0.54-1.37,0.54
				c-0.54,0-0.99-0.18-1.36-0.55C237.57,64.72,237.38,64.26,237.38,63.72z"/>
			<path class="st66" d="M251.7,72.95c-0.67-1.11-1.26-1.88-1.78-2.3c-0.52-0.42-1.1-0.63-1.74-0.63h-0.26v-1.7h12.87v1.7
				c-1.04,0.04-1.78,0.19-2.22,0.43c-0.44,0.24-0.66,0.62-0.66,1.13c0,0.21,0.02,0.4,0.07,0.57c0.05,0.17,0.12,0.34,0.22,0.49
				l4.89,8.18l4.29-7.35c0.16-0.26,0.29-0.54,0.38-0.83c0.09-0.3,0.13-0.57,0.13-0.84c0-0.55-0.22-0.95-0.66-1.22
				c-0.44-0.27-1.24-0.46-2.38-0.56v-1.7h8.74v1.7h-0.26c-0.61,0-1.16,0.2-1.65,0.59c-0.48,0.39-1.17,1.3-2.04,2.74l-5.91,9.72v5.17
				c0,1.07,0.21,1.78,0.65,2.13c0.43,0.35,1.46,0.58,3.07,0.69v1.7h-13.47v-1.7c1.63-0.11,2.65-0.34,3.08-0.69
				c0.43-0.35,0.65-1.06,0.65-2.13v-5.17L251.7,72.95z"/>
			<path class="st66" d="M276.34,72.84c0-1.16-0.17-1.89-0.52-2.21c-0.35-0.32-1.15-0.52-2.39-0.61v-1.7h11.61v1.7
				c-1.07,0.07-1.77,0.26-2.11,0.59c-0.34,0.33-0.51,1.07-0.51,2.23v10.81c0,2.56,0.45,4.43,1.34,5.59c0.9,1.16,2.32,1.74,4.29,1.74
				c1.95,0,3.4-0.59,4.33-1.78c0.93-1.19,1.4-3.04,1.4-5.55V72.84c0-1.16-0.17-1.9-0.51-2.23c-0.34-0.33-1.04-0.52-2.1-0.59v-1.7
				h7.56v1.7c-1.23,0.09-2.03,0.29-2.38,0.61c-0.36,0.32-0.53,1.05-0.53,2.21v10.3c0,3.55-0.78,6.13-2.34,7.76
				c-1.56,1.63-4.03,2.44-7.42,2.44c-3.37,0-5.84-0.82-7.39-2.45c-1.56-1.63-2.33-4.22-2.33-7.75V72.84z M282.09,63.72
				c0-0.49,0.19-0.92,0.57-1.3c0.38-0.38,0.83-0.57,1.34-0.57c0.51,0,0.96,0.19,1.34,0.56s0.57,0.81,0.57,1.31
				c0,0.56-0.18,1.02-0.55,1.38c-0.37,0.36-0.82,0.54-1.37,0.54c-0.54,0-0.99-0.18-1.36-0.55
				C282.28,64.72,282.09,64.26,282.09,63.72z M287.92,63.72c0-0.49,0.19-0.92,0.58-1.3c0.39-0.38,0.83-0.57,1.33-0.57
				c0.52,0,0.97,0.19,1.35,0.56c0.38,0.37,0.56,0.81,0.56,1.31c0,0.56-0.18,1.02-0.55,1.38c-0.36,0.36-0.82,0.54-1.37,0.54
				c-0.54,0-0.99-0.18-1.36-0.55C288.11,64.72,287.92,64.26,287.92,63.72z"/>
			<path class="st66" d="M303.46,72.84c0-1.09-0.18-1.81-0.53-2.15c-0.36-0.34-1.14-0.56-2.35-0.67v-1.7h11.72v1.7
				c-1.21,0.11-2,0.33-2.35,0.67c-0.36,0.34-0.53,1.05-0.53,2.15v7.42l7.07-6.71c0.45-0.42,0.79-0.82,1.04-1.23
				c0.25-0.4,0.37-0.76,0.37-1.08c0-0.39-0.23-0.69-0.69-0.9c-0.46-0.21-1.14-0.31-2.03-0.31h-0.2v-1.7h10.93v1.7h-0.2
				c-0.8,0-1.61,0.19-2.45,0.56c-0.83,0.38-1.63,0.91-2.38,1.6l-5.17,4.78l8.41,11.41c0.54,0.71,1.09,1.29,1.67,1.74
				c0.58,0.45,1.16,0.77,1.75,0.94v1.7h-12.07v-1.7c1.08-0.04,1.76-0.13,2.03-0.25c0.27-0.12,0.41-0.33,0.41-0.64
				c0-0.32-0.14-0.67-0.41-1.07l-0.02-0.03l-6.17-8.45l-1.91,1.74v5.88c0,1.09,0.18,1.81,0.53,2.14c0.36,0.34,1.14,0.56,2.35,0.67
				v1.7h-11.72v-1.7c1.21-0.11,2-0.33,2.35-0.67c0.35-0.34,0.53-1.05,0.53-2.14V72.84z"/>
			<path class="st66" d="M327.43,92.76v-1.7c1.21-0.11,1.99-0.33,2.35-0.67c0.36-0.34,0.53-1.05,0.53-2.14V72.84
				c0-1.09-0.18-1.81-0.53-2.15c-0.35-0.34-1.14-0.56-2.35-0.67v-1.7h22.89l0.51,8.22h-1.88c-0.43-2.3-1.32-3.96-2.67-4.98
				c-1.35-1.02-3.35-1.53-5.98-1.53c-1.64,0-2.7,0.17-3.19,0.5c-0.49,0.33-0.74,1.11-0.74,2.32v6.38h1.47c1.42,0,2.49-0.39,3.2-1.16
				c0.71-0.78,1.15-2.01,1.3-3.7h1.67v11.49h-1.67c-0.15-1.69-0.59-2.93-1.3-3.7c-0.71-0.77-1.78-1.16-3.2-1.16h-1.47v7.25
				c0,1.22,0.25,2,0.75,2.33c0.5,0.33,1.6,0.49,3.31,0.49c2.84,0,4.94-0.56,6.32-1.69c1.37-1.12,2.22-2.97,2.54-5.53h1.88
				l-0.54,8.92H327.43z"/>
			<path class="st66" d="M362.92,88.24c0,1.2,0.24,1.97,0.73,2.31c0.49,0.34,1.53,0.51,3.14,0.51c2.38,0,4.24-0.66,5.58-1.97
				s2.13-3.26,2.36-5.82h1.88l-0.54,9.49h-22.09v-1.7c1.21-0.11,2-0.33,2.35-0.67c0.35-0.34,0.53-1.05,0.53-2.14V72.84
				c0-1.09-0.18-1.81-0.53-2.15c-0.36-0.34-1.14-0.56-2.35-0.67v-1.7h11.79v1.7c-1.19,0.1-1.96,0.31-2.32,0.65
				c-0.36,0.33-0.53,1.05-0.53,2.17V88.24z"/>
			<path class="st66" d="M399.89,77.18l-1.79,0.07c-0.69-2.43-1.61-4.27-2.77-5.5s-2.54-1.85-4.13-1.85c-1.95,0-3.42,0.91-4.41,2.72
				c-0.99,1.81-1.48,4.5-1.48,8.06c0,2.34,0.16,4.13,0.47,5.39s0.84,2.32,1.58,3.19c0.55,0.67,1.19,1.17,1.93,1.52
				c0.74,0.35,1.55,0.52,2.42,0.52c1.46,0,2.76-0.53,3.88-1.59c1.12-1.06,2.05-2.62,2.78-4.68l1.91,0.57
				c-0.69,2.53-1.87,4.45-3.54,5.77c-1.67,1.32-3.78,1.97-6.32,1.97c-1.11,0-2.15-0.11-3.11-0.33c-0.96-0.22-1.82-0.55-2.59-0.98
				c-1.99-1.09-3.52-2.63-4.59-4.62c-1.08-1.99-1.61-4.29-1.61-6.88c0-1.97,0.31-3.77,0.94-5.39c0.63-1.62,1.55-3.03,2.77-4.22
				c1.08-1.05,2.28-1.84,3.59-2.38c1.31-0.54,2.71-0.81,4.18-0.81c0.55,0,1.12,0.06,1.73,0.19c0.6,0.12,1.35,0.34,2.23,0.65
				c0.25,0.09,0.58,0.21,1,0.38c0.71,0.28,1.23,0.43,1.56,0.43c0.31,0,0.55-0.13,0.75-0.4c0.19-0.27,0.32-0.67,0.38-1.2h1.82
				L399.89,77.18z M386.12,98.36l0.64-1.34c0.75,0.39,1.43,0.67,2.04,0.85c0.61,0.17,1.21,0.26,1.83,0.26c0.4,0,0.73-0.11,0.99-0.33
				c0.26-0.22,0.38-0.52,0.38-0.88c0-0.43-0.13-0.75-0.4-0.97c-0.27-0.22-0.65-0.33-1.14-0.33c-0.09,0-0.21,0.01-0.38,0.02
				c-0.16,0.02-0.37,0.04-0.62,0.07l-0.02-2.95h1.11v1.7c0.18-0.03,0.37-0.06,0.54-0.07c0.17-0.01,0.34-0.02,0.49-0.02
				c0.89,0,1.6,0.23,2.11,0.68c0.51,0.45,0.77,1.07,0.77,1.84c0,0.84-0.31,1.5-0.94,1.97c-0.63,0.47-1.51,0.71-2.64,0.71
				c-0.57,0-1.22-0.09-1.96-0.28C388.18,99.11,387.24,98.8,386.12,98.36z"/>
			<path class="st66" d="M405.59,72.84c0-1.09-0.18-1.81-0.53-2.15c-0.36-0.34-1.14-0.56-2.35-0.67v-1.7h11.79v1.7
				c-1.19,0.1-1.96,0.31-2.32,0.65c-0.36,0.33-0.53,1.05-0.53,2.17v15.41c0,1.11,0.18,1.84,0.53,2.17c0.36,0.33,1.13,0.55,2.32,0.65
				v1.7H402.7v-1.7c1.21-0.11,2-0.33,2.35-0.67c0.35-0.34,0.53-1.05,0.53-2.14V72.84z M406.59,63.72c0-0.56,0.2-1.04,0.61-1.46
				c0.41-0.42,0.89-0.62,1.43-0.62c0.56,0,1.04,0.21,1.46,0.63c0.41,0.42,0.62,0.9,0.62,1.45c0,0.58-0.2,1.07-0.61,1.46
				c-0.4,0.39-0.9,0.59-1.47,0.59c-0.57,0-1.05-0.2-1.45-0.59C406.78,64.78,406.59,64.3,406.59,63.72z"/>
			<path class="st66" d="M425.62,88.24c0,1.2,0.24,1.97,0.73,2.31c0.49,0.34,1.53,0.51,3.14,0.51c2.38,0,4.24-0.66,5.58-1.97
				s2.13-3.26,2.36-5.82h1.88l-0.54,9.49h-22.09v-1.7c1.21-0.11,2-0.33,2.35-0.67c0.35-0.34,0.53-1.05,0.53-2.14V72.84
				c0-1.09-0.18-1.81-0.53-2.15c-0.36-0.34-1.14-0.56-2.35-0.67v-1.7h11.79v1.7c-1.19,0.1-1.96,0.31-2.32,0.65
				c-0.36,0.33-0.53,1.05-0.53,2.17V88.24z"/>
			<path class="st66" d="M440.9,92.76v-1.7c1.21-0.11,2-0.33,2.35-0.67c0.35-0.34,0.53-1.05,0.53-2.14V72.84
				c0-1.09-0.18-1.81-0.53-2.15c-0.36-0.34-1.14-0.56-2.35-0.67v-1.7h22.89l0.51,8.22h-1.88c-0.43-2.3-1.32-3.96-2.67-4.98
				c-1.35-1.02-3.35-1.53-5.98-1.53c-1.64,0-2.7,0.17-3.19,0.5c-0.49,0.33-0.74,1.11-0.74,2.32v6.38h1.47c1.42,0,2.49-0.39,3.2-1.16
				c0.71-0.78,1.15-2.01,1.3-3.7h1.67v11.49h-1.67c-0.15-1.69-0.59-2.93-1.3-3.7c-0.71-0.77-1.78-1.16-3.2-1.16h-1.47v7.25
				c0,1.22,0.25,2,0.74,2.33c0.5,0.33,1.6,0.49,3.32,0.49c2.84,0,4.94-0.56,6.32-1.69c1.37-1.12,2.22-2.97,2.54-5.53h1.88
				l-0.54,8.92H440.9z"/>
			<path class="st66" d="M476.4,88.24c0,1.09,0.19,1.8,0.57,2.14c0.38,0.33,1.28,0.56,2.69,0.68v1.7h-12.2v-1.7
				c1.21-0.11,2-0.33,2.35-0.67c0.35-0.34,0.53-1.05,0.53-2.14V72.84c0-1.09-0.18-1.81-0.53-2.15c-0.36-0.34-1.14-0.56-2.35-0.67
				v-1.7h12.3c3.68,0,6.4,0.49,8.16,1.46c1.76,0.98,2.64,2.49,2.64,4.54c0,1.59-0.65,2.86-1.94,3.79c-1.29,0.93-3.24,1.55-5.85,1.84
				c1.7,0.38,3.04,0.94,4.01,1.69c0.97,0.74,1.6,1.68,1.9,2.8c0.24,0.87,0.42,2.01,0.54,3.41c0.05,0.55,0.1,0.93,0.13,1.16
				c0.1,0.6,0.23,1,0.39,1.2c0.16,0.2,0.39,0.3,0.71,0.3c0.5,0,0.89-0.27,1.15-0.82c0.27-0.55,0.4-1.34,0.4-2.37l1.57,0.02
				c0.01,0.09,0.02,0.18,0.02,0.29c0.01,0.11,0.01,0.27,0.01,0.49c0,1.68-0.43,2.97-1.3,3.88c-0.87,0.91-2.1,1.36-3.69,1.36
				c-0.94,0-1.75-0.14-2.45-0.42c-0.69-0.28-1.25-0.69-1.68-1.22c-0.62-0.8-1.01-2.33-1.15-4.6c-0.01-0.18-0.02-0.33-0.03-0.44
				c-0.15-2.43-0.65-4.04-1.51-4.83c-0.42-0.37-0.94-0.65-1.56-0.83c-0.63-0.18-1.42-0.27-2.37-0.27h-1.47V88.24z M476.4,72.77v6.3
				h1.85c2.17,0,3.73-0.35,4.67-1.04c0.94-0.69,1.41-1.83,1.41-3.41c0-1.54-0.4-2.71-1.2-3.52c-0.8-0.81-1.95-1.21-3.47-1.21
				c-1.34,0-2.22,0.19-2.64,0.56C476.6,70.82,476.4,71.59,476.4,72.77z"/>
		</g>
		<g>
			<g>
				<path class="st66" d="M203.06,104.9c-2.33,2.01-4.4,4.23-6.27,6.66c-0.25,0.32-0.49,0.6-0.7,0.92
					c-0.11,0.11-0.21,0.18-0.28,0.18c-0.11,0-0.18-0.04-0.28-0.11c-0.25-0.18-0.53-0.35-0.81-0.46c-0.32-0.14-0.39-0.39-0.42-0.7
					c0-0.42,0.04-0.85,0.11-1.23c0.56-2.92,1.59-5.71,3-8.32c0.21-0.35,0.46-0.71,0.74-0.99c0.25-0.25,0.42-0.39,0.6-0.39
					c0.21,0,0.39,0.14,0.63,0.35c0.46,0.46,0.99,0.88,1.52,1.23c0.35,0.21,0.49,0.39,0.49,0.63c0,0.11-0.04,0.28-0.14,0.49
					c-0.46,1.02-1.06,2.01-1.59,2.99c-0.21,0.39-0.42,0.78-0.71,1.27c0.28-0.11,0.39-0.28,0.49-0.39c1.27-1.41,2.64-2.75,3.98-4.09
					c0.35-0.32,0.71-0.63,1.06-0.92c0.21-0.18,0.35-0.25,0.49-0.25c0.14,0,0.28,0.11,0.49,0.32c0.18,0.18,0.39,0.32,0.56,0.46
					c0.32,0.25,0.46,0.56,0.46,0.95c0,0.53-0.14,0.99-0.28,1.48c-0.07,0.35-0.25,0.67-0.28,1.13c0.49-0.46,0.95-0.92,1.41-1.27
					c0.81-0.67,1.66-1.3,2.57-1.83c0.35-0.21,0.7-0.39,1.09-0.49c0.11-0.04,0.21-0.07,0.32-0.07c0.11,0,0.21,0.04,0.28,0.11
					c0.39,0.25,0.74,0.53,1.02,0.92c0.11,0.14,0.14,0.28,0.14,0.46c0,0.07,0,0.18-0.04,0.25c-0.11,0.56-0.25,1.13-0.35,1.66
					c-0.04,0.11-0.04,0.18-0.07,0.25c0,0.11-0.04,0.18-0.04,0.25c0,0.21,0.11,0.32,0.28,0.32c0.07,0,0.18,0,0.28-0.04
					c1.13-0.25,2.29-0.46,3.42-0.71c0.11,0,0.18-0.04,0.28-0.04c0.28,0,0.53,0.11,0.74,0.32c0.07,0.07,0.14,0.11,0.14,0.21v0.07
					c-0.04,0.11-0.14,0.14-0.25,0.14c-0.85,0.18-1.66,0.46-2.47,0.85c-0.53,0.21-1.06,0.35-1.62,0.42h-0.18
					c-0.39,0-0.74-0.11-1.02-0.42c-0.14-0.11-0.25-0.25-0.42-0.35c-0.39-0.28-0.53-0.67-0.53-1.13c0.04-0.53,0.14-1.06,0.28-1.58
					c0.04-0.11,0.07-0.25,0.07-0.35c0-0.04,0-0.11-0.07-0.14c-0.04-0.04-0.07-0.07-0.14-0.07c-0.11,0-0.25,0.14-0.39,0.18
					c-1.16,0.53-2.18,1.3-3.1,2.15c-0.71,0.64-1.3,1.3-1.87,2.01l-0.42,0.53c-0.18,0.18-0.28,0.25-0.42,0.25
					c-0.11,0-0.21-0.04-0.39-0.18c-0.21-0.18-0.42-0.39-0.71-0.53c-0.21-0.11-0.32-0.32-0.35-0.53c-0.07-0.25-0.11-0.49-0.11-0.74
					c0-0.39,0.07-0.81,0.18-1.2c0.07-0.35,0.18-0.7,0.25-1.09c0.04-0.04,0.07-0.11,0.07-0.18c0-0.04-0.04-0.11-0.07-0.18
					C203.48,104.55,203.23,104.69,203.06,104.9z"/>
				<path class="st66" d="M215.17,107.02c0.6-1.23,1.34-2.43,2.29-3.45c1.02-1.13,2.22-2.01,3.7-2.43c0.32-0.11,0.67-0.21,1.02-0.21
					c0.14,0,0.28,0.04,0.42,0.07c0.07,0.04,0.18,0.04,0.28,0.07c0.39,0.14,1.59,1.3,1.73,1.69c0.07,0.11,0.07,0.25,0.07,0.39
					c0,0.11,0,0.21-0.04,0.32c-0.14,0.53-0.42,1.02-0.81,1.41c-0.88,0.92-1.9,1.59-3.1,2.01c-0.35,0.14-0.67,0.21-1.02,0.21h-0.28
					c-0.25,0-0.39,0.14-0.49,0.32c-0.88,1.55-1.62,3.17-1.9,4.93c-0.04,0.25-0.04,0.46-0.04,0.7c0.04,0.25,0.07,0.35,0.25,0.35
					c0.07,0,0.14,0,0.25-0.04c0.42-0.14,0.81-0.39,1.2-0.64c1.34-0.88,2.57-1.9,3.77-2.99c1.34-1.27,2.75-2.47,4.26-3.52
					c0.14-0.07,0.25-0.18,0.39-0.21c0.07-0.04,0.11-0.04,0.18-0.04c0.14,0,0.25,0.07,0.32,0.18c0.04,0.04,0.04,0.07,0.04,0.11
					c0,0.11-0.11,0.21-0.18,0.28c-0.77,0.56-1.51,1.16-2.18,1.83c-1.16,1.09-2.29,2.22-3.42,3.31c-0.95,0.88-1.9,1.73-2.93,2.5
					c-0.32,0.25-0.63,0.42-1.02,0.56c-0.18,0.07-0.35,0.11-0.49,0.11c-0.21,0-0.42-0.07-0.64-0.18c-0.39-0.25-0.77-0.46-1.2-0.6
					c-0.6-0.25-0.92-0.74-1.16-1.27c-0.21-0.49-0.28-0.99-0.28-1.73C214.19,109.62,214.61,108.32,215.17,107.02z M220,105.85
					c1.06,0,3.03-1.66,3.21-2.71C222.26,103.32,220.39,104.9,220,105.85z"/>
				<path class="st66" d="M233.14,108.57c0.74,0,1.45,0.11,2.08,0.46c0.11,0.07,0.18,0.07,0.25,0.07c0.14,0,0.25-0.07,0.39-0.14
					c0.92-0.67,1.87-1.3,2.82-1.9c0.78-0.49,1.59-0.85,2.43-1.16c0.14-0.07,0.28-0.07,0.39-0.07c0.28,0,0.46,0.14,0.63,0.42
					c0.07,0.07,0.07,0.14,0.07,0.21c0,0.07-0.04,0.14-0.18,0.21c-1.8,0.74-3.38,1.9-5.04,2.92c-0.11,0.07-0.18,0.14-0.28,0.18
					c-0.11,0.07-0.18,0.14-0.18,0.21c0,0.04,0.07,0.11,0.14,0.18c1.23,1.2,1.62,2.71,1.69,4.33v0.49c0,1.23-0.21,2.47-0.56,3.7
					c-1.13,3.63-2.78,7.01-5.07,10.04c-1.45,1.9-3.1,3.56-5.18,4.72c-1.13,0.63-2.29,1.13-3.56,1.34c-0.35,0.07-0.7,0.11-1.06,0.11
					c-0.39,0-0.77-0.04-1.16-0.14c-0.28-0.07-0.53-0.14-0.78-0.18c-0.81-0.14-1.41-0.6-1.8-1.3c-0.42-0.7-0.53-1.41-0.53-2.18
					c0-0.28,0-0.56,0.04-0.85c0.28-2.36,1.23-4.44,2.5-6.45c2.11-3.31,4.69-6.31,7.58-8.99c1.8-1.69,3.63-3.24,5.6-4.72
					c0.11-0.11,0.28-0.14,0.35-0.35c-0.35-0.25-0.74-0.28-1.13-0.32H233c-0.46,0-0.95,0.04-1.41,0.18
					c-0.32,0.11-0.67,0.21-0.99,0.28c-0.07,0.04-0.18,0.04-0.25,0.04c-0.18,0-0.32-0.07-0.42-0.21c-0.28-0.28-0.42-0.49-0.42-0.67
					s0.11-0.35,0.35-0.64c0.64-0.77,1.34-1.55,1.97-2.33c0.35-0.35,0.64-0.77,0.92-1.16c0.11-0.14,0.25-0.28,0.28-0.53h-0.11
					c-0.21,0-0.39,0.07-0.56,0.14c-1.69,0.6-3.17,1.51-4.51,2.75c-0.35,0.32-0.67,0.67-1.02,1.02c-0.07,0.07-0.18,0.14-0.25,0.14
					s-0.14-0.07-0.25-0.14c-0.35-0.32-0.53-0.56-0.53-0.88c0-0.21,0.07-0.42,0.18-0.7c0.39-0.81,1.02-1.45,1.73-1.97
					c1.13-0.88,2.33-1.59,3.63-2.08c0.49-0.18,0.99-0.32,1.52-0.32H233c0.49,0,0.92,0.14,1.2,0.63c0.14,0.21,0.32,0.46,0.53,0.63
					c0.25,0.25,0.35,0.46,0.35,0.71c0,0.18-0.07,0.35-0.14,0.53c-0.25,0.6-0.64,1.06-1.06,1.52c-0.63,0.77-1.3,1.48-2.04,2.15
					c-0.04,0-0.07,0.07-0.11,0.14C232.23,108.6,232.68,108.57,233.14,108.57z M236.24,111c-0.18-0.39-0.25-0.53-0.39-0.53
					c-0.11,0-0.28,0.07-0.53,0.25c-2.18,1.55-4.19,3.38-6.17,5.22c-2.18,2.01-4.12,4.26-5.81,6.7c-1.13,1.62-2.18,3.28-2.86,5.14
					c-0.39,0.99-0.6,2.01-0.6,3.03v0.42c0.07,0.77,0.28,1.48,0.81,2.11c0.28,0.32,0.64,0.53,1.02,0.53c0.14,0,0.32-0.04,0.46-0.07
					c0.18-0.07,0.39-0.11,0.6-0.18c1.27-0.42,2.4-1.09,3.45-1.9c1.37-1.02,2.5-2.33,3.56-3.7c1.66-2.18,3.1-4.48,4.33-6.91
					c0.71-1.37,1.34-2.82,1.8-4.3c0.35-1.13,0.67-2.29,0.67-3.52v-0.46C236.6,112.23,236.49,111.6,236.24,111z"/>
				<path class="st66" d="M250.9,110.47c0.32-0.21,0.64-0.46,0.95-0.7c1.41-1.09,2.82-2.22,4.23-3.28c0.25-0.21,0.53-0.35,0.77-0.53
					c0.11-0.07,0.18-0.11,0.28-0.11c0.07,0,0.11,0,0.18,0.04c0.14,0.07,0.25,0.18,0.25,0.28c0,0.07-0.07,0.18-0.18,0.25
					c-1.58,1.13-2.92,2.54-4.4,3.77c-0.56,0.46-1.06,0.92-1.66,1.27c-0.21,0.14-0.42,0.25-0.64,0.32c-0.14,0.04-0.25,0.07-0.39,0.07
					c-0.18,0-0.35-0.07-0.53-0.21c-0.21-0.21-0.49-0.39-0.74-0.56c-0.42-0.32-0.56-0.78-0.6-1.27v-0.25c0-0.63,0.14-1.27,0.28-1.87
					c0.07-0.32,0.18-0.63,0.28-0.99c-0.21,0.11-0.28,0.25-0.39,0.35l-3.7,3.7c-0.49,0.49-0.95,0.95-1.48,1.37
					c-0.21,0.14-0.39,0.28-0.6,0.39c-0.21,0.14-0.42,0.21-0.67,0.21c-0.21,0-0.46-0.07-0.74-0.21c-0.85-0.42-1.23-1.09-1.37-1.97
					v-0.85c0-0.7,0.14-1.45,0.28-2.11c0.35-1.48,0.88-2.85,1.62-4.16c0.28-0.42,0.56-0.81,0.95-1.16c0.28-0.25,0.49-0.39,0.7-0.39
					s0.42,0.14,0.67,0.39c0.28,0.28,0.6,0.49,0.95,0.74c0.32,0.18,0.46,0.35,0.46,0.56c0,0.14-0.04,0.32-0.18,0.53
					c-0.42,0.74-0.85,1.45-1.23,2.18c-0.71,1.2-1.41,2.43-1.97,3.74c-0.18,0.42-0.32,0.88-0.35,1.34c0,0.07-0.04,0.18-0.04,0.25
					s0.04,0.14,0.11,0.21c0.07,0.04,0.11,0.07,0.18,0.07c0.11,0,0.21-0.11,0.32-0.14c0.28-0.14,0.53-0.35,0.77-0.56
					c0.88-0.71,1.69-1.45,2.5-2.26c1.48-1.45,2.89-2.96,4.26-4.48c0.35-0.39,0.6-0.85,0.92-1.27c0.18-0.25,0.35-0.49,0.56-0.7
					c0.14-0.11,0.25-0.18,0.35-0.18c0.11,0,0.18,0.07,0.32,0.21c0.14,0.18,0.28,0.32,0.46,0.46c0.25,0.18,0.35,0.39,0.35,0.6
					c0,0.11-0.04,0.21-0.07,0.32c-0.25,0.67-0.53,1.27-0.81,1.9c-0.42,0.99-0.88,1.94-1.3,2.93c-0.21,0.49-0.39,1.02-0.49,1.58
					c-0.04,0.07-0.04,0.14-0.04,0.21c0,0.07,0,0.11,0.04,0.18h0.07C250.58,110.68,250.76,110.58,250.9,110.47z"/>
				<path class="st66" d="M259.88,106.81c1.34-1.37,2.78-2.61,4.26-3.77c0.39-0.28,0.74-0.53,1.16-0.7
					c0.18-0.07,0.32-0.14,0.49-0.14c0.21,0,0.46,0.11,0.64,0.35c0.14,0.14,0.28,0.25,0.46,0.35c0.35,0.28,0.49,0.6,0.49,1.06
					c-0.04,0.67-0.28,1.3-0.49,1.94c-0.18,0.6-0.39,1.2-0.53,1.8c-0.04,0.07-0.07,0.14-0.07,0.21c0,0.04,0.04,0.07,0.07,0.11
					s0.07,0.04,0.11,0.04c0.07,0,0.18-0.04,0.21-0.07l2.22-1.06c0.67-0.32,1.34-0.6,2.01-0.88c0.11-0.04,0.21-0.11,0.35-0.11
					c0.04,0,0.07,0,0.14,0.04c0.18,0.11,0.42,0.18,0.46,0.42c0,0.25-0.21,0.35-0.35,0.46c-0.35,0.18-0.67,0.39-0.99,0.6
					c-0.63,0.39-1.27,0.77-1.83,1.23c-0.49,0.42-1.09,0.7-1.69,0.92c-0.18,0.07-0.32,0.11-0.46,0.11c-0.28,0-0.49-0.11-0.74-0.35
					c-0.18-0.18-0.35-0.35-0.56-0.49c-0.49-0.28-0.67-0.74-0.67-1.27v-0.28c0.07-0.63,0.28-1.27,0.53-1.87
					c0.14-0.39,0.28-0.74,0.42-1.13c0.07-0.18,0.14-0.35,0.14-0.64c-0.32,0.11-0.6,0.28-0.85,0.42c-0.92,0.6-1.76,1.27-2.57,2.01
					c-1.9,1.62-3.56,3.52-4.93,5.6c-0.18,0.25-0.25,0.35-0.35,0.35s-0.21-0.07-0.42-0.21c-0.32-0.21-0.6-0.46-0.99-0.6
					c-0.28-0.14-0.32-0.39-0.35-0.67v-0.28c0-0.6,0.11-1.2,0.21-1.8c0.49-2.36,1.3-4.55,2.64-6.55c0.18-0.28,0.39-0.56,0.67-0.81
					c0.21-0.14,0.39-0.21,0.53-0.21c0.21,0,0.39,0.11,0.56,0.28c0.35,0.32,0.74,0.67,1.13,0.95c0.21,0.18,0.32,0.35,0.32,0.56
					c0,0.07-0.04,0.18-0.04,0.25c-0.18,0.56-0.42,1.13-0.67,1.66c-0.32,0.67-0.67,1.34-0.99,2.04c-0.07,0.14-0.14,0.32-0.18,0.6
					C259.6,107.05,259.74,106.95,259.88,106.81z"/>
				<path class="st66" d="M293.38,95.78c-1.66,2.64-3.31,5.32-4.97,8c-0.07,0.07-0.11,0.18-0.18,0.25
					c-0.04,0.07-0.07,0.14-0.07,0.21c0,0.07,0.04,0.18,0.11,0.25c0.14,0.11,0.21,0.25,0.28,0.42c0.07,0.11,0.11,0.25,0.11,0.35
					c0,0.14-0.04,0.25-0.11,0.39c-0.11,0.14-0.18,0.21-0.28,0.21c-0.07,0-0.14-0.04-0.25-0.07c-0.28-0.14-0.46-0.21-0.6-0.21
					c-0.18,0-0.28,0.18-0.53,0.56c-1.06,1.66-2.11,3.31-3.31,4.86c-0.42,0.56-0.85,1.09-1.3,1.58c-0.21,0.25-0.46,0.46-0.71,0.64
					c-0.21,0.14-0.42,0.25-0.63,0.25c-0.18,0-0.35-0.07-0.53-0.21c-0.28-0.25-0.63-0.42-0.99-0.56c-0.42-0.21-0.6-0.56-0.67-1.02
					c-0.04-0.18-0.04-0.32-0.04-0.49c0-0.28,0.04-0.6,0.11-0.88c0.56-2.82,2.01-5.14,4.19-7.01c0.56-0.46,1.2-0.85,1.94-0.99
					c0.18-0.04,0.32-0.07,0.49-0.07c0.56,0,1.06,0.28,1.48,0.74c0.18,0.18,0.32,0.39,0.46,0.56c0.07,0.04,0.11,0.07,0.14,0.07
					c0.07,0,0.11-0.04,0.14-0.07c0.18-0.25,0.32-0.46,0.46-0.67c1.83-2.96,3.67-5.92,5.5-8.84c1.2-1.94,2.43-3.84,3.66-5.78
					c0.6-0.95,1.16-1.94,1.73-2.92c0.6-0.99,1.2-1.97,1.87-2.89c0.14-0.25,0.32-0.49,0.53-0.67c0.11-0.07,0.18-0.07,0.25-0.07
					c0.11,0,0.21,0.07,0.28,0.21c0.18,0.28,0.25,0.53,0.25,0.77c0,0.21-0.04,0.42-0.14,0.63c-0.7,1.69-1.48,3.31-2.26,4.97
					c-2.75,5.81-5.78,11.52-8.46,17.37c-1.45,3.21-2.89,6.41-4.26,9.65c-0.95,2.33-1.9,4.65-2.82,6.98
					c-0.04,0.04-0.04,0.07-0.07,0.14c-0.14,0.32-0.21,0.46-0.35,0.46c-0.11,0-0.25-0.07-0.46-0.25c-0.28-0.25-0.42-0.35-0.42-0.53
					c0-0.14,0.07-0.28,0.14-0.56c1.16-3.7,2.57-7.36,4.05-10.96c2.04-5,4.19-9.9,6.38-14.83c0.04-0.07,0.07-0.11,0.07-0.21v-0.11
					C293.53,95.57,293.46,95.67,293.38,95.78z M286.12,105.75c-0.18,0.04-0.32,0.11-0.46,0.18c-0.53,0.28-1.02,0.64-1.44,1.06
					c-1.2,1.23-2.08,2.64-2.82,4.19c-0.04,0.11-0.11,0.21-0.11,0.35v0.07C282.28,111.18,285.88,106.84,286.12,105.75z"/>
				<path class="st66" d="M293.84,107.02c0.6-1.23,1.34-2.43,2.29-3.45c1.02-1.13,2.22-2.01,3.7-2.43c0.32-0.11,0.67-0.21,1.02-0.21
					c0.14,0,0.28,0.04,0.42,0.07c0.07,0.04,0.18,0.04,0.28,0.07c0.39,0.14,1.59,1.3,1.73,1.69c0.07,0.11,0.07,0.25,0.07,0.39
					c0,0.11,0,0.21-0.04,0.32c-0.14,0.53-0.42,1.02-0.81,1.41c-0.88,0.92-1.9,1.59-3.1,2.01c-0.35,0.14-0.67,0.21-1.02,0.21h-0.28
					c-0.25,0-0.39,0.14-0.49,0.32c-0.88,1.55-1.62,3.17-1.9,4.93c-0.04,0.25-0.04,0.46-0.04,0.7c0.04,0.25,0.07,0.35,0.25,0.35
					c0.07,0,0.14,0,0.25-0.04c0.42-0.14,0.81-0.39,1.2-0.64c1.34-0.88,2.57-1.9,3.77-2.99c1.34-1.27,2.75-2.47,4.26-3.52
					c0.14-0.07,0.25-0.18,0.39-0.21c0.07-0.04,0.11-0.04,0.18-0.04c0.14,0,0.25,0.07,0.32,0.18c0.04,0.04,0.04,0.07,0.04,0.11
					c0,0.11-0.11,0.21-0.18,0.28c-0.77,0.56-1.51,1.16-2.18,1.83c-1.16,1.09-2.29,2.22-3.42,3.31c-0.95,0.88-1.9,1.73-2.93,2.5
					c-0.32,0.25-0.63,0.42-1.02,0.56c-0.18,0.07-0.35,0.11-0.49,0.11c-0.21,0-0.42-0.07-0.64-0.18c-0.39-0.25-0.77-0.46-1.2-0.6
					c-0.6-0.25-0.92-0.74-1.16-1.27c-0.21-0.49-0.28-0.99-0.28-1.73C292.85,109.62,293.28,108.32,293.84,107.02z M298.67,105.85
					c1.06,0,3.03-1.66,3.21-2.71C300.92,103.32,299.05,104.9,298.67,105.85z"/>
				<path class="st66" d="M310.01,105.68c0.35-0.39,0.74-0.77,1.16-1.13c0.18-0.11,0.35-0.25,0.53-0.32
					c0.11-0.04,0.18-0.07,0.25-0.07s0.14,0.04,0.21,0.07c0.42,0.28,0.95,0.53,1.09,1.09c0.18,0.77,0.7,0.99,1.37,1.02
					c0.21,0.04,0.39,0.04,0.6,0.04c0.49,0,0.95-0.07,1.45-0.14c0.56-0.11,1.09-0.21,1.62-0.32c0.07,0,0.14-0.04,0.25-0.04
					c0.07,0,0.18,0.04,0.25,0.11c0.11,0.11,0.32,0.18,0.32,0.35v0.04c-0.04,0.21-0.21,0.28-0.39,0.35
					c-0.53,0.21-1.06,0.35-1.59,0.46c-0.49,0.14-0.99,0.25-1.44,0.35c-0.21,0.07-0.42,0.07-0.64,0.07c-0.56,0-1.06-0.18-1.48-0.6
					c-0.46-0.46-1.06-0.81-1.37-1.45c-0.04-0.07-0.07-0.11-0.14-0.11s-0.14,0.04-0.21,0.11c-0.42,0.39-0.81,0.78-1.2,1.2
					c-1.34,1.44-2.47,3.07-3.63,4.69c-0.46,0.63-0.92,1.23-1.41,1.87c-0.14,0.18-0.25,0.28-0.35,0.28s-0.21-0.07-0.39-0.18
					c-0.28-0.18-0.56-0.39-0.88-0.53c-0.32-0.14-0.39-0.46-0.39-0.77v-0.25c0-0.49,0.11-1.02,0.21-1.55
					c0.56-2.29,1.41-4.51,2.64-6.55c0.21-0.32,0.46-0.67,0.7-0.95c0.14-0.18,0.28-0.32,0.46-0.46c0.18-0.11,0.32-0.18,0.49-0.18
					c0.14,0,0.32,0.07,0.46,0.18c0.32,0.28,0.67,0.56,0.99,0.85c0.14,0.11,0.18,0.25,0.18,0.39c0,0.11-0.04,0.21-0.07,0.35
					c-0.21,0.53-0.42,1.06-0.63,1.55l-0.95,2.01c-0.07,0.11-0.14,0.25-0.14,0.39v0.07C308.6,107.19,309.31,106.42,310.01,105.68z"/>
				<path class="st66" d="M321.6,106.81c1.34-1.37,2.78-2.61,4.26-3.77c0.39-0.28,0.74-0.53,1.16-0.7c0.18-0.07,0.32-0.14,0.49-0.14
					c0.21,0,0.46,0.11,0.64,0.35c0.14,0.14,0.28,0.25,0.46,0.35c0.35,0.28,0.49,0.6,0.49,1.06c-0.04,0.67-0.28,1.3-0.49,1.94
					c-0.18,0.6-0.39,1.2-0.53,1.8c-0.04,0.07-0.07,0.14-0.07,0.21c0,0.04,0.04,0.07,0.07,0.11s0.07,0.04,0.11,0.04
					c0.07,0,0.18-0.04,0.21-0.07l2.22-1.06c0.67-0.32,1.34-0.6,2.01-0.88c0.11-0.04,0.21-0.11,0.35-0.11c0.04,0,0.07,0,0.14,0.04
					c0.18,0.11,0.42,0.18,0.46,0.42c0,0.25-0.21,0.35-0.35,0.46c-0.35,0.18-0.67,0.39-0.99,0.6c-0.63,0.39-1.27,0.77-1.83,1.23
					c-0.49,0.42-1.09,0.7-1.69,0.92c-0.18,0.07-0.32,0.11-0.46,0.11c-0.28,0-0.49-0.11-0.74-0.35c-0.18-0.18-0.35-0.35-0.56-0.49
					c-0.49-0.28-0.67-0.74-0.67-1.27v-0.28c0.07-0.63,0.28-1.27,0.53-1.87c0.14-0.39,0.28-0.74,0.42-1.13
					c0.07-0.18,0.14-0.35,0.14-0.64c-0.32,0.11-0.6,0.28-0.85,0.42c-0.92,0.6-1.76,1.27-2.57,2.01c-1.9,1.62-3.56,3.52-4.93,5.6
					c-0.18,0.25-0.25,0.35-0.35,0.35s-0.21-0.07-0.42-0.21c-0.32-0.21-0.6-0.46-0.99-0.6c-0.28-0.14-0.32-0.39-0.35-0.67v-0.28
					c0-0.6,0.11-1.2,0.21-1.8c0.49-2.36,1.3-4.55,2.64-6.55c0.18-0.28,0.39-0.56,0.67-0.81c0.21-0.14,0.39-0.21,0.53-0.21
					c0.21,0,0.39,0.11,0.56,0.28c0.35,0.32,0.74,0.67,1.13,0.95c0.21,0.18,0.32,0.35,0.32,0.56c0,0.07-0.04,0.18-0.04,0.25
					c-0.18,0.56-0.42,1.13-0.67,1.66c-0.32,0.67-0.67,1.34-0.99,2.04c-0.07,0.14-0.14,0.32-0.18,0.6
					C321.32,107.05,321.46,106.95,321.6,106.81z"/>
				<path class="st66" d="M331.89,107.02c0.6-1.23,1.34-2.43,2.29-3.45c1.02-1.13,2.22-2.01,3.7-2.43c0.32-0.11,0.67-0.21,1.02-0.21
					c0.14,0,0.28,0.04,0.42,0.07c0.07,0.04,0.18,0.04,0.28,0.07c0.39,0.14,1.59,1.3,1.73,1.69c0.07,0.11,0.07,0.25,0.07,0.39
					c0,0.11,0,0.21-0.04,0.32c-0.14,0.53-0.42,1.02-0.81,1.41c-0.88,0.92-1.9,1.59-3.1,2.01c-0.35,0.14-0.67,0.21-1.02,0.21h-0.28
					c-0.25,0-0.39,0.14-0.49,0.32c-0.88,1.55-1.62,3.17-1.9,4.93c-0.04,0.25-0.04,0.46-0.04,0.7c0.04,0.25,0.07,0.35,0.25,0.35
					c0.07,0,0.14,0,0.25-0.04c0.42-0.14,0.81-0.39,1.2-0.64c1.34-0.88,2.57-1.9,3.77-2.99c1.34-1.27,2.75-2.47,4.26-3.52
					c0.14-0.07,0.25-0.18,0.39-0.21c0.07-0.04,0.11-0.04,0.18-0.04c0.14,0,0.25,0.07,0.32,0.18c0.04,0.04,0.04,0.07,0.04,0.11
					c0,0.11-0.11,0.21-0.18,0.28c-0.77,0.56-1.51,1.16-2.18,1.83c-1.16,1.09-2.29,2.22-3.42,3.31c-0.95,0.88-1.9,1.73-2.93,2.5
					c-0.32,0.25-0.63,0.42-1.02,0.56c-0.18,0.07-0.35,0.11-0.49,0.11c-0.21,0-0.42-0.07-0.64-0.18c-0.39-0.25-0.77-0.46-1.2-0.6
					c-0.6-0.25-0.92-0.74-1.16-1.27c-0.21-0.49-0.28-0.99-0.28-1.73C330.9,109.62,331.32,108.32,331.89,107.02z M336.71,105.85
					c1.06,0,3.03-1.66,3.21-2.71C338.97,103.32,337.1,104.9,336.71,105.85z"/>
				<path class="st66" d="M351.02,105.68c-1.3,1.41-2.61,2.85-4.12,4.09c-0.6,0.46-1.2,0.95-1.87,1.34l-0.64,0.32
					c-0.11,0.04-0.21,0.07-0.28,0.07c-0.18,0-0.35-0.07-0.53-0.25c-0.28-0.32-0.6-0.6-0.92-0.88c-0.35-0.28-0.39-0.74-0.39-1.2
					c0.04-0.71,0.25-1.37,0.53-2.01c0.6-1.41,1.48-2.64,2.75-3.56c0.6-0.46,1.3-0.81,2.08-0.95c0.14-0.04,0.25-0.04,0.39-0.04
					c0.53,0,0.99,0.21,1.37,0.63c0.42,0.49,0.92,0.92,1.44,1.37c0.39-0.46,0.81-0.92,1.2-1.37c0.14-0.18,0.28-0.39,0.49-0.49
					c0.07-0.07,0.14-0.11,0.21-0.11c0.11,0,0.18,0.07,0.28,0.14c0.39,0.32,0.56,0.67,0.56,1.13c0,0.11,0,0.25-0.04,0.35
					c-0.21,1.16-0.49,2.33-0.78,3.45c-0.04,0.11-0.07,0.21-0.07,0.32c0,0.07,0,0.11,0.04,0.18c0.21,0,0.39-0.14,0.56-0.25
					c1.06-0.6,2.08-1.16,3.17-1.66c0.21-0.11,0.46-0.21,0.67-0.28c0.07-0.04,0.14-0.04,0.21-0.04c0.11,0,0.25,0.04,0.35,0.14
					c0.21,0.14,0.28,0.25,0.28,0.35s-0.11,0.21-0.35,0.32c-1.09,0.53-2.15,1.2-3.17,1.83c-0.67,0.39-1.34,0.85-2.04,1.27
					c-0.28,0.21-0.46,0.46-0.56,0.77c-1.48,4.26-3.21,8.42-5.22,12.48c-1.13,2.26-2.4,4.44-3.88,6.45
					c-1.69,2.26-3.59,4.26-5.99,5.81c-0.63,0.42-1.3,0.78-2.04,0.99c-0.42,0.14-0.81,0.21-1.23,0.21c-0.35,0-0.74-0.07-1.09-0.21
					c-0.07-0.04-0.14-0.04-0.21-0.07c-1.13-0.28-1.66-0.95-1.69-2.11c0-0.14-0.04-0.32-0.04-0.46c0-0.71,0.14-1.41,0.35-2.08
					c0.53-1.69,1.34-3.21,2.22-4.72c1.45-2.43,3.21-4.62,5.11-6.7c1.66-1.87,3.42-3.59,5.25-5.25c1.69-1.51,3.45-2.89,5.32-4.12
					c0.53-0.35,0.92-0.78,1.13-1.37c0.53-1.34,1.09-2.68,1.62-4.02c0.04-0.07,0.11-0.14,0.11-0.25c0-0.04,0-0.11-0.04-0.14
					C351.37,105.33,351.19,105.5,351.02,105.68z M347.99,112.94c-1.94,1.37-3.74,2.89-5.43,4.48c-1.59,1.48-3.07,3.03-4.48,4.65
					c-1.69,1.97-3.24,4.02-4.51,6.27c-0.71,1.27-1.34,2.61-1.66,4.05c-0.11,0.46-0.18,0.92-0.18,1.34c0,0.39,0.04,0.74,0.14,1.09
					c0.18,0.56,0.39,0.85,0.81,0.85c0.18,0,0.35-0.07,0.6-0.14c0.7-0.28,1.34-0.67,1.9-1.09c2.04-1.48,3.67-3.31,5.04-5.39
					c1.37-2.01,2.5-4.16,3.59-6.31c1.55-3.1,2.96-6.27,4.37-9.44c0.07-0.18,0.18-0.32,0.18-0.6
					C348.2,112.8,348.09,112.87,347.99,112.94z M345.06,109.77c1.94-0.95,3.49-2.4,4.86-4.02c0.07-0.07,0.14-0.14,0.14-0.21
					c0-0.04-0.04-0.07-0.04-0.11c-0.07-0.11-0.18-0.11-0.32-0.11h-0.14c-0.53,0-1.02,0.21-1.52,0.49c-1.62,0.88-2.71,2.26-3.56,3.88
					c-0.04,0.04-0.04,0.11-0.04,0.18v0.11C344.71,109.94,344.89,109.84,345.06,109.77z"/>
				<path class="st66" d="M359.26,110.96c1.87-1.66,3.84-3.07,5.92-4.4c0.28-0.18,0.53-0.32,0.77-0.49
					c0.11-0.04,0.18-0.07,0.28-0.07c0.07,0,0.14,0.04,0.21,0.07c0.14,0.07,0.21,0.18,0.21,0.25c0,0.11-0.04,0.18-0.14,0.25
					c-0.11,0.11-0.25,0.21-0.35,0.28c-1.52,1.06-2.92,2.18-4.19,3.49c-0.81,0.85-1.62,1.62-2.54,2.36c-0.21,0.21-0.46,0.39-0.7,0.56
					c-0.35,0.25-0.56,0.39-0.81,0.39c-0.25,0-0.46-0.14-0.81-0.35c-0.21-0.18-0.42-0.32-0.67-0.42c-0.46-0.18-0.7-0.53-0.85-0.99
					c-0.07-0.25-0.11-0.53-0.11-0.77c0-0.42,0.07-0.81,0.14-1.23c0.46-2.47,1.41-4.79,2.71-6.94c0.21-0.32,0.42-0.63,0.74-0.88
					c0.25-0.21,0.42-0.32,0.63-0.32c0.18,0,0.39,0.11,0.64,0.32c0.18,0.18,0.39,0.35,0.6,0.53c0.25,0.21,0.39,0.46,0.39,0.74
					c0,0.07-0.04,0.18-0.04,0.25c-0.07,0.25-0.18,0.49-0.28,0.74c-0.74,1.83-1.62,3.63-2.33,5.46c-0.28,0.67-0.53,1.3-0.74,2.11
					C358.49,111.6,358.87,111.28,359.26,110.96z M362.29,97.64c0.25,0.18,0.53,0.39,0.78,0.56c0.32,0.21,0.46,0.46,0.46,0.77
					c0,0.14,0,0.28-0.07,0.46c-0.14,0.42-0.39,0.85-0.7,1.2c-0.21,0.25-0.46,0.35-0.71,0.35c-0.25,0-0.49-0.11-0.7-0.32
					c-0.28-0.25-0.56-0.49-0.88-0.7c-0.32-0.21-0.46-0.53-0.46-0.92c0-0.67,0.49-1.41,1.09-1.66c0.14-0.07,0.25-0.11,0.46-0.11
					C361.8,97.33,362.08,97.43,362.29,97.64z"/>
			</g>
		</g>
	</g>
	<rect x="175.84" y="5.39" class="st66" width="3.01" height="135.23"/>
	<g>
		<g>
			<polygon class="st67" points="89,29.49 91.07,35.89 97.79,35.87 92.34,39.82 94.43,46.21 89,42.25 83.57,46.21 85.66,39.82 
				80.21,35.87 86.94,35.89 89,29.49 			"/>
			<polygon class="st67" points="110.8,34.02 112.47,39.17 117.88,39.16 113.49,42.33 115.18,47.48 110.8,44.29 106.43,47.48 
				108.11,42.33 103.73,39.16 109.14,39.17 110.8,34.02 			"/>
			<polygon class="st67" points="67.11,34.02 65.45,39.17 60.03,39.16 64.42,42.33 62.74,47.48 67.11,44.29 71.48,47.48 69.8,42.33 
				74.19,39.16 68.77,39.17 67.11,34.02 			"/>
			<polygon class="st67" points="128.87,47.58 130.23,51.78 134.65,51.78 131.07,54.36 132.44,58.56 128.87,55.96 125.3,58.56 
				126.68,54.36 123.1,51.78 127.52,51.78 128.87,47.58 			"/>
			<polygon class="st67" points="50.32,47.58 48.96,51.78 44.55,51.78 48.13,54.36 46.75,58.56 50.32,55.96 53.89,58.56 
				52.51,54.36 56.09,51.78 51.68,51.78 50.32,47.58 			"/>
		</g>
		<g>
			<path class="st67" d="M88.1,116.81l0.01,0.01l0.01-0.01c14.82-11.13,42.34-14.88,81.7-10.86c-32.84-8.16-60.08-6.03-81.71,6.4
				c-21.64-12.43-48.87-14.56-81.71-6.4C45.76,101.94,73.28,105.68,88.1,116.81L88.1,116.81z"/>
			<path class="st67" d="M131.84,83.45c0.13-4.26,3.83-11.66,8.68-15.21c-19.56,4.62-35.58,16.62-46.15,33.33
				C105.5,92.65,118.23,86.46,131.84,83.45L131.84,83.45z M44.38,83.45c-0.13-4.26-3.83-11.66-8.68-15.21
				c19.56,4.62,35.58,16.62,46.15,33.33C70.73,92.65,58,86.46,44.38,83.45L44.38,83.45z"/>
			<path class="st67" d="M141.99,98.71c1.33-4.71,8.27-12.07,15.14-14.41c-24.51-1.75-47.52,6.84-65.52,23.16
				C107.43,99.72,124.71,97.54,141.99,98.71L141.99,98.71z M34.23,98.71C32.91,94,25.96,86.64,19.09,84.29
				c24.51-1.75,47.52,6.84,65.52,23.16C68.8,99.72,51.52,97.54,34.23,98.71L34.23,98.71z"/>
			<path class="st67" d="M102.94,59.27c3.07,0,5.56,2.49,5.56,5.56c0,3.07-2.49,5.56-5.56,5.56c-3.07,0-5.56-2.49-5.56-5.56
				C97.38,61.76,99.87,59.27,102.94,59.27L102.94,59.27z M90.14,54.74c4.29,16.05,7.45,21.34,26.55,17.25
				c-10.46,6.14-20.28,15.16-27.13,27.25L90.14,54.74L90.14,54.74z"/>
			<path class="st67" d="M73.28,59.27c-3.07,0-5.56,2.49-5.56,5.56c0,3.07,2.49,5.56,5.56,5.56c3.07,0,5.56-2.49,5.56-5.56
				C78.84,61.76,76.35,59.27,73.28,59.27L73.28,59.27z M86.08,54.74c-4.29,16.05-7.45,21.34-26.55,17.25
				C70,78.12,79.82,87.14,86.67,99.23L86.08,54.74L86.08,54.74z"/>
		</g>
	</g>
</g>
</svg>
